<?xml version="1.0" standalone="no"?>
<!DOCTYPE svg PUBLIC "-//W3C//DTD SVG 20010904//EN"
 "http://www.w3.org/TR/2001/REC-SVG-20010904/DTD/svg10.dtd">
<svg version="1.0" xmlns="http://www.w3.org/2000/svg"
 width="512.000000pt" height="512.000000pt" viewBox="0 0 512.000000 512.000000"
 preserveAspectRatio="xMidYMid meet">
<metadata>
Created by potrace 1.11, written by Peter Selinger 2001-2013
</metadata>
<g transform="translate(0.000000,512.000000) scale(0.100000,-0.100000)"
fill="#000000" stroke="none">
<path d="M2325 4979 c-208 -25 -201 -24 -475 -93 -21 -6 -197 -71 -245 -91
-466 -195 -908 -590 -1159 -1035 -114 -202 -234 -518 -260 -684 -4 -21 -8 -41
-10 -45 -3 -4 -8 -34 -11 -66 -4 -33 -9 -62 -10 -66 -26 -43 -26 -558 0 -689
2 -13 7 -42 10 -65 19 -131 87 -363 152 -520 36 -88 131 -273 164 -322 16 -23
29 -44 29 -48 0 -8 126 -182 178 -245 47 -56 239 -250 302 -305 148 -129 376
-273 577 -363 154 -70 443 -158 577 -177 197 -28 254 -32 411 -32 194 -1 304
10 485 46 735 145 1371 638 1706 1321 121 246 193 503 233 825 11 92 11 381 0
470 -17 142 -25 191 -35 235 -3 14 -8 36 -10 50 -43 236 -181 563 -338 805
-102 155 -189 261 -335 405 -256 252 -537 431 -871 553 -88 33 -181 62 -226
72 -209 45 -225 48 -374 64 -89 10 -380 10 -465 0z"/>
</g>
</svg>
